<svg xmlns="http://www.w3.org/2000/svg" width="1000.2" height="216.84758"><g style="fill:#017eb4;fill-opacity:1"><path d="M27 1218.594c-1.953 0-4 1.981-4 4v142c0 1.896 2.105 4 4 4h68c44.053 0 78-28.919 78-75 0-36.84-24.83-75-82-75zm41 40h24c18.154 0 34.5 11.081 34.5 35 0 19.097-14.903 36-34.5 36H68ZM238 1257.094c-31.063 0-57.5 26.107-57.5 56 0 35.502 28.02 58.5 57.5 58.5 32.1 0 57.5-25.343 57.5-57 0-30.215-22.337-57.5-57.5-57.5zm.063 37.282c11.928 0 19.5 9.25 19.5 19.5 0 10.739-8.61 19.343-19.5 19.343-10.001 0-19.5-7.8-19.5-19.843 0-10.141 8.962-19 19.5-19zM312 1368.582c-2.082 0-4-1.952-4-4v-100c.068-2.01 2.047-4 4-4h32c1.977 0 4 2.076 4 4v8s13.029-15 37-15c19.33 0 27 9 31 19 6-9 18.33-19 38-19 24.545 0 34 13.848 34 35v72c0 2.046-2.006 4-4 4h-33c-1.884 0-4-2.017-4-4v-60c0-7.063-5.52-11-12-11-10.558 0-17 8-17 8v63c0 2-2.055 4-4 4h-33c-1.9 0-4-1.923-4-4v-60c0-5.941-3.227-11-12-11-10.519 0-17 8.5-17 8.5v62.5c0 2.05-2.035 4-4 4zM746 1257.094c-31.063 0-57.5 26.107-57.5 56 0 35.502 28.02 58.5 57.5 58.5 32.1 0 57.5-25.343 57.5-57 0-30.215-22.337-57.5-57.5-57.5zm.063 37.282c11.928 0 19.5 9.25 19.5 19.5 0 10.739-8.61 19.343-19.5 19.343-10.001 0-19.5-7.8-19.5-19.843 0-10.141 8.962-19 19.5-19zM566 1368.582c-2.082 0-4-1.952-4-4v-100c.068-2.01 2.047-4 4-4h33c1.977 0 4 2.076 4 4v7.5s11.029-14.5 37-14.5c27.267 0 37 16.06 37 37v70c0 2-2.055 4-4 4h-33c-1.9 0-4-1.923-4-4v-56c0-6.441-2.665-15-16-15-11.144 0-17 8-17 8v63c0 2.05-2.035 4-4 4zM508 1368.582c-2.082 0-4-1.952-4-4v-100c.068-2.01 2.047-4 4-4h33c1.977 0 4 2.076 4 4v100c0 2.05-2.035 4-4 4z" style="fill:#017eb4;fill-opacity:1;stroke:none" transform="matrix(.83312 0 0 .83312 226.858 -926.053)"/><path d="M548.75 1229.488c0 12.616-10.353 22.844-23.125 22.844s-23.125-10.228-23.125-22.844c0-12.616 10.353-22.844 23.125-22.844s23.125 10.228 23.125 22.844z" style="fill:#017eb4;fill-opacity:1;fill-rule:nonzero;stroke:none" transform="matrix(.83312 0 0 .83312 226.858 -926.053)"/><path d="M789.875 1229.457c0-11.875 9.815-22.25 22.938-22.25 14.392 0 23.375 11.58 23.375 23.937 0 19.482-15.117 30.053-26.75 35.563-1.594.717-2.438 1.28-5.25-2.125-3.497-4.254-2.053-4.527.125-6.563 1.51-1.354 2.871-2.41 4.687-4.375 0 0 1.438-1.304 1.438-3.937-9.569 0-20.563-7.567-20.563-20.25zM825.938 1291.894c0-24.838 23.981-34.209 48.797-34.209 24.468 0 37.152 7.176 46.003 12.33 2.432 1.185 2.434 3.577 1.324 5.63l-11.183 18.88c-1.436 2.401-3.372 2.703-6.404.73-5.778-3.55-13.702-8.736-27.413-8.736-6.708 0-12.062 1.747-12.062 5.813 0 11.008 63.125-3.096 63.125 41.875 0 25.445-23.297 37.5-52.75 37.5-30.395 0-50.334-13.975-50.334-13.975-2.392-1.542-1.92-3.646-.073-6.5l11.907-19.9c1.504-2.906 4.204-2.72 6.695-1.081 0 0 17.655 11.33 34.305 11.33 11.072 0 15.063-3.766 15.063-5.874 0-13.366-67 .554-67-43.813z" style="fill:#017eb4;fill-opacity:1;stroke:none" transform="matrix(.83312 0 0 .83312 226.858 -926.053)"/></g><path d="M332.9 1223.559c-5.25 0-10.5 1.75-14 5.25l-172.5 172.5 192 192 170.5-170.5c7.95-7.95 8.04-23.96 0-32l-162-162c-3.5-3.5-8.75-5.25-14-5.25z" style="fill:#e3163d;fill-opacity:1;stroke:none" transform="matrix(.37865 0 0 .37865 19.544 -463.206)"/><path d="m139.4 1408.309-185.5 185.5c-7 7-7 21 0 28l163 163c6.888 6.888 23 7 30 0l7-7 177.5-177.5z" style="fill:#017eb4;fill-opacity:1;stroke:none" transform="matrix(.37865 0 0 .37865 19.544 -463.206)"/><path d="M-160 1038.435a50 50 0 0 1-50 50 50 50 0 0 1-50-50 50 50 0 0 1 50-50 50 50 0 0 1 50 50z" style="fill:#fff;fill-opacity:1;fill-rule:nonzero;stroke:none" transform="matrix(.35465 0 0 .35465 116.89 -224.89)"/><path d="M-160 1038.435a50 50 0 0 1-50 50 50 50 0 0 1-50-50 50 50 0 0 1 50-50 50 50 0 0 1 50 50z" style="fill:#fff;fill-opacity:1;fill-rule:nonzero;stroke:none" transform="matrix(.35465 0 0 .35465 170.753 -221.328)"/><path d="M-160 1038.435a50 50 0 0 1-50 50 50 50 0 0 1-50-50 50 50 0 0 1 50-50 50 50 0 0 1 50 50z" style="fill:#fff;fill-opacity:1;fill-rule:nonzero;stroke:none" transform="matrix(.35465 0 0 .35465 220.616 -299.31)"/></svg>